<svg width="50" height="50" viewBox="0 0 50 50" fill="none" xmlns="http://www.w3.org/2000/svg">
<rect width="50" height="50" rx="15" fill="#1F1F1F"/>
<path d="M14.5577 24.1017C15.2715 23.3879 16.4054 23.3504 17.1634 23.989L17.2862 24.1017L27.4276 34.2431C28.181 34.9966 28.181 36.2181 27.4276 36.9715C26.7138 37.6853 25.5799 37.7229 24.8219 37.0842L24.6992 36.9715L14.5577 26.8301C13.8043 26.0767 13.8043 24.8551 14.5577 24.1017Z" fill="#444444"/>
<path d="M35.1822 13.0169C36.1888 12.0211 37.889 12.6763 37.9881 14.0423L37.9927 14.1685V24.9048C37.9927 25.8042 37.2556 26.5334 36.3463 26.5334C35.4784 26.5334 34.7673 25.869 34.7045 25.0263L34.7 24.9048L34.6997 18.0997L26.6568 26.0564C25.6502 27.0521 23.95 26.3969 23.8509 25.0309L23.8463 24.9048L23.846 18.0997L15.8032 26.0564C15.1941 26.6589 14.2264 26.6906 13.5796 26.1515L13.4749 26.0564C12.8658 25.4538 12.8337 24.4967 13.3787 23.8568L13.4749 23.7532L24.3285 13.0169C25.3352 12.0211 27.0354 12.6763 27.1345 14.0423L27.139 14.1685L27.1387 20.9725L35.1822 13.0169Z" fill="white"/>
</svg>
